<?xml version="1.0" encoding="UTF-8" standalone="no"?>
<!DOCTYPE svg PUBLIC "-//W3C//DTD SVG 1.1//EN" "http://www.w3.org/Graphics/SVG/1.1/DTD/svg11.dtd">
<svg xmlns:xl="http://www.w3.org/1999/xlink" xmlns="http://www.w3.org/2000/svg" xmlns:dc="http://purl.org/dc/elements/1.1/" version="1.1" viewBox="345 181 672.7646 615.5719" width="672.7646" height="615.5719">
  <defs/>
  <metadata> Produced by OmniGraffle 7.15 
    <dc:date>2021-06-14 13:22:10 +0000</dc:date>
  </metadata>
  <g id="Canvas___1" stroke="none" fill-opacity="1" stroke-dasharray="none" fill="none" stroke-opacity="1">
    <title>版面 1</title>
    <g id="Canvas___1: 图层 1">
      <title>图层 1</title>
      <g id="Group_52">
        <g id="Graphic_43">
          <path d="M 677.5599 584.6176 C 752.7013 584.6176 776.9438 518.2455 776.9438 484.16195 C 776.9438 466.44986 764.9257 472.0282 745.6774 481.46935 C 727.8854 490.19475 703.9239 502.22056 677.5599 502.22056 C 622.6703 502.22056 578.1761 450.0784 578.1761 484.16195 C 578.1761 518.2455 602.41855 584.6176 677.5599 584.6176 Z" fill="black"/>
        </g>
        <g id="Graphic_41">
          <path d="M 867.3218 288.3897 C 971.0704 391.1752 971.0704 557.8233 867.3218 660.6088 C 763.5737 763.3949 595.3649 763.3949 491.61675 660.6088 C 387.8681 557.8233 387.8681 391.1752 491.61675 288.3897 C 595.3649 185.60365 763.5737 185.60365 867.3218 288.3897" fill="#ffd21e"/>
        </g>
        <g id="Group_34">
          <g id="Graphic_35">
            <path d="M 679.4693 661.9589 C 716.091 661.9589 745.7749 632.54476 745.7749 596.2685 C 745.7749 568.0075 727.765 543.9161 702.4962 534.6454 C 701.5673 534.30456 700.627 533.98645 699.6809 533.6854 C 693.31065 531.66876 686.5161 553.36295 679.4693 553.36295 C 672.8869 553.36295 666.5281 531.52675 660.5191 533.2991 C 633.1345 541.3769 613.1637 566.5135 613.1637 596.2685 C 613.1637 632.54476 642.8533 661.9589 679.4693 661.9589 Z" fill="#ef4e4e"/>
          </g>
        </g>
        <g id="Graphic_33">
          <ellipse cx="859.132" cy="413.90437" rx="24.8445688272564" ry="24.614054301874" fill="#ffd21e"/>
        </g>
        <g id="Graphic_32">
          <ellipse cx="503.63675" cy="413.90437" rx="24.8445688272564" ry="24.614054301874" fill="#ffd21e"/>
        </g>
        <g id="Graphic_44">
          <path d="M 676.1985 670.91135 C 737.8429 670.91135 757.7309 604.5393 757.7309 570.4557 C 757.7309 552.7436 747.87155 558.322 732.0806 567.7631 C 717.4845 576.4885 697.8269 588.5143 676.1985 588.5143 C 631.1682 588.5143 594.66606 536.37215 594.66606 570.4557 C 594.66606 604.5393 614.5541 670.91135 676.1985 670.91135 Z" fill="#ffd21e"/>
        </g>
      </g>
      <g id="Graphic_69">
        <path d="M 542.58056 318.09087 C 380.78566 311.58722 308.5167 371.05706 381.16873 450.8876 C 453.81357 530.7335 643.829 600.70525 805.6055 607.2003 C 811.1007 607.4207 816.2272 607.3754 821.5233 607.4467 L 756.1326 535.57396 C 630.3134 530.5286 489.0533 483.3012 440.65034 430.0769 C 392.2254 376.85173 454.9745 337.79727 580.7753 342.83404 L 580.2953 342.80695 L 580.7605 342.81776 C 724.5417 348.57555 895.1019 412.5855 961.677 485.76 C 993.8764 521.1512 995.6086 552.1067 972.8397 574.0917 C 1003.2718 550.0309 1003.8245 514.8477 966.9877 474.3711 C 894.3577 394.54143 704.34225 324.56968 542.58056 318.09087 Z" fill="#89b2fd"/>
      </g>
      <g id="Graphic_40">
        <path d="M 945.1389 474.49926 C 945.1389 329.13286 826.1971 211.2946 679.4693 211.2946 C 532.7472 211.2946 413.8054 329.13286 413.8054 474.49926 C 413.8054 619.86 532.7472 737.6982 679.4693 737.6982 C 826.1971 737.6982 945.1389 619.86 945.1389 474.49926 Z M 383.22708 474.49926 C 383.22708 312.4035 515.8612 181 679.4693 181 C 843.0831 181 975.7172 312.4035 975.7172 474.49926 C 975.7172 636.58934 843.0831 767.99285 679.4693 767.99285 C 515.8612 767.99285 383.22708 636.58934 383.22708 474.49926 Z" fill="#ffac03"/>
      </g>
      <g id="Graphic_29">
        <path d="M 910.2602 521.83566 C 922.6395 521.83566 933.7 526.87434 941.4119 536.00874 C 946.1824 541.6666 951.1708 550.78396 951.5722 564.4401 C 956.767 562.96316 961.7554 562.1395 966.4227 562.1395 C 978.2687 562.1395 988.9737 566.6385 996.5423 574.8072 C 1006.2669 585.29926 1010.5844 598.1885 1008.7037 611.08915 C 1007.8092 617.2299 1005.7394 622.74005 1002.6431 627.83555 C 1009.1739 633.0674 1013.9788 640.3556 1016.3067 649.1207 C 1018.1243 655.9886 1019.9878 670.298 1010.2518 685.03345 C 1010.8711 685.99915 1011.4502 686.9989 1011.9949 688.02144 C 1017.8491 699.0304 1018.2218 711.4766 1013.0557 723.065 C 1005.2176 740.6294 985.7456 754.46735 947.937 769.3221 C 924.4112 778.55875 902.8923 784.4666 902.6973 784.5234 C 871.5972 792.5103 843.473 796.5719 819.1216 796.5719 C 774.3693 796.5719 742.3289 782.9896 723.889 756.2113 C 694.21086 713.0842 698.4539 673.6382 736.8531 635.6123 C 758.1083 614.57136 772.2363 583.5496 775.1778 576.7386 C 781.1122 556.5782 796.7999 534.1682 822.8772 534.1682 L 822.8829 534.1682 C 825.079 534.1682 827.2979 534.33864 829.4825 534.6795 C 840.9042 536.4632 850.8868 542.97315 858.0196 552.77785 C 865.7201 543.29126 873.197 535.7474 879.9628 531.49267 C 890.1633 525.08496 900.3522 521.83566 910.2602 521.83566 M 910.2602 552.13027 C 906.3612 552.13027 901.5965 553.77764 896.3443 557.07806 C 880.0374 567.32586 848.5703 620.9109 837.0511 641.7587 C 833.1923 648.7401 826.5927 651.69404 820.6525 651.69404 C 808.8638 651.69404 799.6611 640.0829 819.5745 625.3304 C 849.5221 603.13064 839.0178 566.843 824.7177 564.60485 C 824.0928 564.5083 823.4735 564.46284 822.8772 564.46284 C 809.8787 564.46284 804.1449 586.6569 804.1449 586.6569 C 804.1449 586.6569 787.3449 628.4661 758.4752 657.0395 C 729.6056 685.6242 728.1148 708.56815 749.1578 739.1354 C 763.5038 759.9832 790.9744 766.2773 819.1216 766.2773 C 848.318 766.2773 878.2484 759.506 895.0255 755.1945 C 895.8512 754.9843 997.8554 726.4336 984.9371 702.1377 C 982.764 698.0534 979.1862 696.4174 974.6851 696.4174 C 956.4918 696.4174 923.3963 723.2468 909.1651 723.2468 C 905.9885 723.2468 903.7466 721.9062 902.8292 718.6342 C 896.7686 697.0877 995.0057 688.0271 986.7261 656.81226 C 985.264 651.2907 981.3077 649.0526 975.7401 649.05825 C 951.6983 649.05825 897.7548 690.9526 886.4478 690.9526 C 885.582 690.9526 884.9627 690.7027 884.6244 690.1687 C 878.9594 681.1138 882.0671 674.78566 921.9973 650.8476 C 961.9274 626.89825 989.9542 612.49226 974.0143 595.2971 C 972.1795 593.3146 969.5763 592.4341 966.4227 592.4341 C 942.1802 592.43976 884.8996 644.08204 884.8996 644.08204 C 884.8996 644.08204 869.4413 660.0104 860.0953 660.0104 C 857.9451 660.0104 856.116 659.1697 854.8775 657.0963 C 848.2492 646.0191 916.447 594.8199 920.2886 573.6938 C 922.8975 559.3787 918.4653 552.13027 910.2602 552.13027" fill="#ffac03"/>
      </g>
      <g id="Graphic_28">
        <path d="M 749.1578 739.1354 C 728.1205 708.56815 729.6113 685.6242 758.4752 657.0395 C 787.3449 628.4661 804.1506 586.6569 804.1506 586.6569 C 804.1506 586.6569 810.4234 562.3724 824.7235 564.60485 C 839.0178 566.843 849.5164 603.13064 819.5688 625.3304 C 789.6212 647.5188 825.5319 662.6008 837.0511 641.7587 C 848.5761 620.9109 880.0317 567.32586 896.35 557.07806 C 912.6569 546.8303 924.136 552.57335 920.2944 573.6938 C 916.447 594.8199 848.2435 646.0191 854.8832 657.102 C 861.5172 668.17345 884.9054 644.08204 884.9054 644.08204 C 884.9054 644.08204 958.08 578.10194 974.0143 595.2971 C 989.9485 612.49226 961.9274 626.89825 921.9973 650.8476 C 882.0614 674.78566 878.9652 681.1138 884.6302 690.1687 C 890.3009 699.22925 978.4465 625.6031 986.7261 656.81226 C 995 688.0271 896.7686 697.0877 902.8292 718.6342 C 908.8956 740.192 972.0246 677.8475 984.9371 702.1377 C 997.8611 726.4336 895.8512 754.9843 895.0255 755.1945 C 862.0734 763.6642 778.3944 781.60355 749.1578 739.1354" fill="#ffd21e"/>
      </g>
      <g id="Graphic_31">
        <path d="M 452.5028 521.83566 C 440.12925 521.83566 429.063 526.87434 421.35107 536.00874 C 416.58056 541.6666 411.5979 550.78396 411.1908 564.4401 C 406.0017 562.96316 401.00757 562.1395 396.346 562.1395 C 384.49424 562.1395 373.78925 566.6385 366.22064 574.8072 C 356.49613 585.29926 352.1786 598.1885 354.05927 611.08915 C 354.95374 617.2299 357.02364 622.74005 360.1199 627.83555 C 353.59483 633.0674 348.78418 640.3556 346.462 649.1207 C 344.63864 655.9886 342.77516 670.298 352.51688 685.03345 C 351.89763 685.99915 351.3128 686.9989 350.7738 688.02144 C 344.91387 699.0304 344.54117 711.4766 349.7073 723.065 C 357.5454 740.6294 377.0174 754.46735 414.83175 769.3221 C 438.35177 778.55875 459.87643 784.4666 460.06565 784.5234 C 491.16575 792.5103 519.29 796.5719 543.6414 796.5719 C 588.3937 796.5719 620.4341 782.9896 638.874 756.2113 C 668.5521 713.0842 664.3091 673.6382 625.9099 635.6123 C 604.6547 614.57136 590.52666 583.5496 587.5852 576.7386 C 581.65075 556.5782 565.9631 534.1682 539.8858 534.1682 L 539.88006 534.1682 C 537.684 534.1682 535.4708 534.33864 533.28046 534.6795 C 521.85875 536.4632 511.8762 542.97315 504.7434 552.77785 C 497.0429 543.29126 489.566 535.7474 482.80014 531.49267 C 472.60546 525.08496 462.41077 521.83566 452.5028 521.83566 M 452.5028 552.13027 C 456.40175 552.13027 461.16654 553.77764 466.4187 557.07806 C 482.7256 567.32586 514.19266 620.9109 525.71186 641.7587 C 529.57643 648.7401 536.1703 651.69404 542.1105 651.69404 C 553.8992 651.69404 563.10766 640.0829 543.18846 625.3304 C 513.2466 603.13064 523.7509 566.843 538.04525 564.60485 C 538.6702 564.5083 539.2895 564.46284 539.8858 564.46284 C 552.8843 564.46284 558.6181 586.6569 558.6181 586.6569 C 558.6181 586.6569 575.42385 628.4661 604.2878 657.0395 C 633.1574 685.6242 634.6482 708.56815 613.6109 739.1354 C 599.2592 759.9832 571.7886 766.2773 543.6414 766.2773 C 514.44495 766.2773 484.51455 759.506 467.7432 755.1945 C 466.91753 754.9843 364.9076 726.4336 377.82584 702.1377 C 379.99895 698.0534 383.57684 696.4174 388.07787 696.4174 C 406.27693 696.4174 439.3724 723.2468 453.59793 723.2468 C 456.7802 723.2468 459.01636 721.9062 459.93377 718.6342 C 466.0001 697.0877 367.7573 688.0271 376.0369 656.81226 C 377.499 651.2907 381.46107 649.0526 387.02285 649.05825 C 411.0704 649.05825 465.0139 690.9526 476.32095 690.9526 C 477.181 690.9526 477.8003 690.7027 478.13857 690.1687 C 483.80356 681.1138 480.7016 674.78566 440.77143 650.8476 C 400.8413 626.89825 372.8145 612.49226 388.75445 595.2971 C 390.58927 593.3146 393.18668 592.4341 396.346 592.4341 C 420.5885 592.43976 477.86335 644.08204 477.86335 644.08204 C 477.86335 644.08204 493.32165 660.0104 502.6735 660.0104 C 504.8179 660.0104 506.647 659.1697 507.8855 657.0963 C 514.51376 646.0191 446.32174 594.8199 442.47437 573.6938 C 439.8655 559.3787 444.30345 552.13027 452.5028 552.13027" fill="#ffac03"/>
      </g>
      <g id="Graphic_30">
        <path d="M 613.6052 739.1354 C 634.6482 708.56815 633.1574 685.6242 604.2878 657.0395 C 575.4181 628.4661 558.6181 586.6569 558.6181 586.6569 C 558.6181 586.6569 552.3396 562.3724 538.04525 564.60485 C 523.74516 566.843 513.2523 603.13064 543.1942 625.3304 C 573.1418 647.5188 537.23105 662.6008 525.71186 641.7587 C 514.19266 620.9109 482.73134 567.32586 466.4187 557.07806 C 450.1118 546.8303 438.627 552.57335 442.47437 573.6938 C 446.316 594.8199 514.5195 646.0191 507.8855 657.102 C 501.24576 668.17345 477.86335 644.08204 477.86335 644.08204 C 477.86335 644.08204 404.68293 578.10194 388.7487 595.2971 C 372.82024 612.49226 400.83556 626.89825 440.7657 650.8476 C 480.7073 674.78566 483.80356 681.1138 478.13857 690.1687 C 472.4621 699.22925 384.3165 625.6031 376.0369 656.81226 C 367.76303 688.0271 465.9944 697.0877 459.93377 718.6342 C 453.87315 740.192 390.73835 677.8475 377.82584 702.1377 C 364.9076 726.4336 466.9118 754.9843 467.73747 755.1945 C 500.6896 763.6642 584.3743 781.60355 613.6052 739.1354" fill="#ffd21e"/>
      </g>
      <g id="Graphic_74">
        <path d="M 861.8634 290.74465 C 965.8634 398.74465 973.8634 542.74465 877.8634 522.74465 C 781.8633 502.74514 657.8634 486.74465 557.86336 474.74465 C 457.8633 462.74516 376.7513 405.28557 480.5 302.5 C 584.2482 199.7139 757.8639 182.74412 861.8634 290.74465 Z" fill="#ffd21e"/>
      </g>
      <g id="Graphic_37">
        <path d="M 677.5599 584.6176 C 752.7013 584.6176 776.9438 518.2455 776.9438 484.16195 C 776.9438 466.44986 764.9257 472.0282 745.6774 481.46935 C 727.8854 490.19475 703.9239 502.22056 677.5599 502.22056 C 622.6703 502.22056 578.1761 450.0784 578.1761 484.16195 C 578.1761 518.2455 602.41855 584.6176 677.5599 584.6176 Z" fill="#3a3b45"/>
      </g>
      <g id="Graphic_76">
        <path d="M 383.92952 354.71663 C 383.92952 354.71663 313.44623 377.4205 386.09825 457.251 C 458.7431 537.0969 648.7585 607.0687 810.535 613.56375 C 816.0302 613.7841 821.1567 613.7388 826.4528 613.8101 L 761.0621 541.9374 C 635.2429 536.89204 493.98284 489.66464 445.57986 436.44034 C 397.1549 383.21515 422 329.5 422 329.5 Z" fill="#89b2fd"/>
      </g>
      <g id="Group_68">
        <g id="Graphic_57">
          <path d="M 756.9762 617.62004 L 789.2474 535.4207 L 804.7558 543.8668 L 772.4868 626.072 Z" fill="#99aab5"/>
        </g>
        <g id="Graphic_58">
          <path d="M 778.1195 675.6945 C 775.744 681.7476 769.1903 684.133 763.47975 681.02295 L 727.28815 661.3173 C 721.5776 658.2072 718.8723 650.7746 721.2499 644.7274 L 736.30345 606.3567 C 738.6789 600.3036 745.2326 597.9182 750.9432 601.0283 L 787.1369 620.7398 C 792.8453 623.844 795.5506 631.2766 793.1751 637.3297 L 778.1195 675.6945 Z M 827.579 549.6506 C 825.2087 555.7018 818.6498 558.08904 812.94445 554.9771 L 776.7507 535.26555 C 771.04015 532.1555 768.337 524.7288 770.7125 518.67566 L 785.7733 480.30896 C 788.1488 474.25585 794.7025 471.8705 800.4131 474.98054 L 836.6016 494.694 C 842.3122 497.804 845.0153 505.23076 842.645 511.282 Z" fill="#55acee"/>
        </g>
        <g id="Graphic_59">
          <path d="M 756.7335 554.2968 L 740.3542 532.0703 C 735.16965 525.04184 730.0079 526.4356 727.8575 531.9152 L 719.2582 553.83936 C 717.1026 559.3208 719.5452 564.856 727.4489 564.95554 L 752.4328 565.25596 Z" fill="#99aab5"/>
        </g>
        <g id="Graphic_60">
          <path d="M 809.0995 612.7394 C 806.7189 618.7944 800.1652 621.1798 794.4568 618.0756 L 742.7546 589.91795 C 737.044 586.8079 734.3388 579.3753 736.7142 573.3222 L 749.6165 540.4447 C 751.9919 534.3916 758.5508 532.00435 764.2614 535.1144 L 815.9636 563.27206 C 821.669 566.384 824.3721 573.8107 821.9988 579.8697 Z" fill="#ccd6dd"/>
        </g>
        <g id="Graphic_61">
          <path d="M 824.3153 601.2621 C 818.3803 616.3969 804.3014 623.62054 792.8824 617.4063 C 781.4613 611.1862 792.5277 602.32196 798.4678 587.1853 C 804.408 572.04864 802.9732 556.3808 814.3922 562.595 C 825.8082 568.817 830.2554 586.1255 824.3153 601.2621 Z" fill="#ccd6dd"/>
        </g>
        <g id="Graphic_62">
          <path d="M 858.3983 583.0572 C 842.8929 574.60335 827.7382 581.2552 821.7938 596.38014 C 815.861 611.5208 821.3831 629.41465 836.8915 637.86075 Z M 849.799 604.9814 L 868.3265 621.7224 L 845.4982 615.94055 Z" fill="#99aab5"/>
        </g>
        <g id="Graphic_63">
          <path d="M 872.4212 623.9524 C 871.2319 626.98286 867.9603 628.17366 865.1013 626.61664 C 862.2424 625.0596 860.893 621.3521 862.0822 618.3217 C 863.2714 615.29126 866.5431 614.1005 869.4021 615.6575 C 872.261 617.2145 873.6126 620.9279 872.4212 623.9524 Z" fill="#99aab5"/>
        </g>
        <g id="Graphic_64">
          <path d="M 731.99144 617.3332 L 736.2983 606.3586 L 793.173 637.32385 L 788.8744 648.2889 Z M 770.7104 518.6698 L 775.0111 507.71063 L 831.8828 538.68366 L 827.582 549.6428 Z M 721.2417 644.737 L 725.5403 633.772 L 782.4181 664.7295 L 778.1173 675.68866 Z M 781.454 491.2815 L 785.74745 480.3184 L 842.6283 511.26816 L 838.3327 522.22543 Z" fill="#88c9f9"/>
        </g>
        <g id="Graphic_65">
          <path d="M 729.7981 546.2828 C 728.6119 549.3055 725.335 550.4982 722.4782 548.94703 C 719.6193 547.39 718.2729 543.67477 719.457 540.6462 C 720.6483 537.62165 723.92 536.43086 726.7768 537.982 C 729.6358 539.539 730.9873 543.2524 729.7981 546.2828 Z" fill="#99aab5"/>
        </g>
        <g id="Graphic_66">
          <path d="M 858.1356 651.2414 L 858.0371 650.9384 C 856.9982 647.64935 858.5238 644.2706 861.4412 643.3948 C 861.5261 643.3705 872.7367 639.7021 877.7391 626.9662 C 882.716 614.27284 877.8541 601.8653 877.8026 601.6914 C 876.4574 598.52715 877.6777 594.9539 880.4703 593.7515 C 883.2702 592.55304 886.6085 594.1548 887.9269 597.3421 C 888.2495 598.0352 895.0289 614.8735 888.0759 632.5911 C 881.1147 650.3183 865.837 655.1017 865.1874 655.2982 C 862.3602 656.1479 859.2651 654.34464 858.1356 651.2414 Z" fill="#f8a9e2"/>
        </g>
        <g id="Graphic_67">
          <path d="M 868.6107 671.0661 C 868.378 670.42664 868.2321 669.7357 868.2012 669.0228 C 868.031 665.6235 870.3945 662.9363 873.4823 663.0282 C 874.1088 663.02605 890.2824 662.8461 899.6695 638.9145 C 909.1826 614.68466 899.0861 598.4292 898.6514 597.7503 C 896.8127 594.9052 897.3044 591.0856 899.7616 589.2678 C 902.2063 587.44794 905.6834 588.2551 907.5584 591.0871 C 908.1595 591.9977 922.112 613.7256 910.0137 644.54336 C 897.8092 675.6655 875.0624 675.3746 874.0999 675.3396 C 871.6545 675.273 869.4926 673.48885 868.6107 671.0661 Z" fill="#f8a9e2"/>
        </g>
        <g id="Graphic_39">
          <path d="M 767.0461 410.2571 C 776.7935 413.66544 780.6696 433.50776 790.5088 428.32705 C 809.1493 418.5053 816.2248 395.57843 806.3168 377.1108 C 796.4031 358.6432 773.2615 351.63335 754.621 361.4494 C 735.9804 371.27117 728.9049 394.19804 738.8129 412.66566 C 743.4917 421.38537 758.3422 407.2123 767.0461 410.2571 Z" fill="#3a3b45"/>
        </g>
        <g id="Graphic_38">
          <path d="M 595.1669 410.2571 C 585.42516 413.66544 581.5491 433.50776 571.7042 428.32705 C 553.0636 418.5053 545.9881 395.57843 555.90186 377.1108 C 565.80985 358.6432 588.9572 351.63335 607.59775 361.4494 C 626.2383 371.27117 633.3138 394.19804 623.4001 412.66566 C 618.72704 421.38537 603.8765 407.2123 595.1669 410.2571 Z" fill="#3a3b45"/>
        </g>
      </g>
    </g>
  </g>
</svg>
